# xmcd CD database file
# Copyright (C) 1995 Ti Kan
#
# Track frame offsets:
#	150
#	12000
#	18470
#	26617
#	38337
#	49760
#	58575
#	67322
#	76290
#	90942
#	100285
#	110445
#	120440
#	130555
#	140947
#	150940
#	163317
#	173150
#	184580
#	193007
#
# Disc length: 2686 seconds
#
# Revision: 1
# Processed by: cddbd v1.4b41PL1 Copyright (c) Steve Scherf et al.
# Submitted via: NotifyCDPlayer(CDDB) 1.07
#
DISCID=fc0a7c14
DTITLE=Instrumentals - 20 Bluegrass Originals
DYEAR=1900
DGENRE=
TTITLE0=Foggy Mountain Breakdown "Flatt and Scruggs"
TTITLE1=Banjo Whiz "Bill Emerson"
TTITLE2=Bending the Strings "Allen Shelton"
TTITLE3=Orange Blossom Special Breakdown "The Stonemans"
TTITLE4=Lee Highway Ramble "Ken Clark and Chubby Anthony"
TTITLE5=Kentucky Banjo "Larry Sparks"
TTITLE6=Kentucky Shuck "Moore and Napier"
TTITLE7=Dueling Banjos "Curtis McPeake"
TTITLE8=Sunrise "Country Gentlemen"
TTITLE9=Border Ride "Jim and Jesse"
TTITLE10=Slippin' Banjo "Bill Duncan"
TTITLE11=Buttahatchee "Leon Jackson and Johnny Bryant"
TTITLE12=Green Mountain Hop "Reno and Smiley"
TTITLE13=Home Sweet Home "Little Roy Lewis"
TTITLE14=Sockeye "Reno and Smiley"
TTITLE15=Train 45 "The Stanley Brothers"
TTITLE16=Limehouse Blues "Reno and Smiley"
TTITLE17=Big Country "Jimmy Martin"
TTITLE18=Cotton Eyed Joe "Tommy Jackson"
TTITLE19=Cedar Grove "Bill Clifton"
EXTD=
EXTT0=
EXTT1=
EXTT2=
EXTT3=
EXTT4=
EXTT5=
EXTT6=
EXTT7=
EXTT8=
EXTT9=
EXTT10=
EXTT11=
EXTT12=
EXTT13=
EXTT14=
EXTT15=
EXTT16=
EXTT17=
EXTT18=
EXTT19=
PLAYORDER=
